<?xml version="1.0" encoding="utf-8"?>
<!-- Generator: Adobe Illustrator 19.1.0, SVG Export Plug-In . SVG Version: 6.00 Build 0)  -->
<!DOCTYPE svg PUBLIC "-//W3C//DTD SVG 1.1//EN" "http://www.w3.org/Graphics/SVG/1.1/DTD/svg11.dtd">
<svg version="1.1" id="Layer_1" xmlns="http://www.w3.org/2000/svg" xmlns:xlink="http://www.w3.org/1999/xlink" x="0px" y="0px"
	 width="200px" height="200px" viewBox="0 0 200 200" style="enable-background:new 0 0 200 200;" xml:space="preserve">
<style type="text/css">
	.st0{fill:#4EC3B4;}
	.st1{fill:#FFFFFF;}
</style>
<circle cx="99" cy="99.7" r="90.5"/>
<circle class="st0" cx="99" cy="99.7" r="80.3"/>
<g>
	<path class="st1" d="M119.6,88c2.6,3,4,8.4,4,13.4c0,13.7-11.1,24.8-24.9,24.8c-13.7,0-24.9-11-24.9-24.7c0-5,1.5-10.4,4-13.4H50
		c0,0,0,37.1,0,42.6c0,12.1,11.3,19.4,17.2,19.4c5.5,0,52.9,0,62.3,0c9.4,0,17.5-9.4,17.5-17.6c0-5.4,0-44.4,0-44.4H119.6z"/>
	<path class="st1" d="M130.4,52C118.7,52,75,52,75,52v24h-4V52h-2v24h-5V52.5c0,0.2-3,0.7-4,1.4V76h-3V55.8C50,63.5,50.1,70,50.1,86
		h30.2c4.6-6,11.1-8.2,18.5-8.2c7.3,0,13.9,2.2,18.5,8.2H147c0,0,0-14.8,0-18.3S142.1,52,130.4,52z M140,74.8c0,1.8-1.4,3.2-3.2,3.2
		h-11.5c-1.8,0-3.2-1.4-3.2-3.2V63.2c0-1.8,1.4-3.2,3.2-3.2h11.5c1.8,0,3.2,1.4,3.2,3.2V74.8z"/>
	<path class="st1" d="M98.7,82.2c-10.5,0-19,8.5-19,19c0,10.5,8.5,19,19,19c10.5,0,19-8.5,19-19C117.8,90.7,109.2,82.2,98.7,82.2z
		 M98.7,115.2c-7.7,0-14-6.3-14-14s6.3-14,14-14s14,6.3,14,14S106.4,115.2,98.7,115.2z"/>
</g>
<g>
</g>
<g>
</g>
<g>
</g>
<g>
</g>
<g>
</g>
<g>
</g>
<g>
</g>
<g>
</g>
<g>
</g>
<g>
</g>
<g>
</g>
<g>
</g>
<g>
</g>
<g>
</g>
<g>
</g>
</svg>
