<?xml version="1.0" encoding="utf-8"?>
<!-- Generator: Adobe Illustrator 19.1.0, SVG Export Plug-In . SVG Version: 6.00 Build 0)  -->
<!DOCTYPE svg PUBLIC "-//W3C//DTD SVG 1.1//EN" "http://www.w3.org/Graphics/SVG/1.1/DTD/svg11.dtd">
<svg version="1.1" id="Layer_1" xmlns="http://www.w3.org/2000/svg" xmlns:xlink="http://www.w3.org/1999/xlink" x="0px" y="0px"
	 width="200px" height="200px" viewBox="0 0 200 200" style="enable-background:new 0 0 200 200;" xml:space="preserve">
<style type="text/css">
	.st0{fill:#4EC3B4;}
	.st1{fill:#FFFFFF;}
</style>
<circle cx="99.3" cy="99.3" r="90.8"/>
<circle class="st0" cx="99.3" cy="99.3" r="80.6"/>
<path class="st1" d="M140.9,81.7c-0.4,54.9-54.6,71.6-87,50.5c16,1.6,26.6-5.4,29.3-8.3c-11.1-0.1-17-9.4-18.4-13.7
	c4.3,0.9,7.5,0,8.6-0.4C59.1,105,57.9,94.7,57.9,90c2.4,1.3,5.7,2.4,8.7,2.4c-10.6-8-10.1-19.5-6.1-26.5
	c17.5,20.7,39.3,20.7,41,20.7c-0.3-1.4-0.5-2.9-0.5-4.4c0-11,8.9-19.9,19.9-19.9c5.7,0,10.9,2.4,14.5,6.3c2.3,0.2,9.7-3.1,12.5-4.7
	c-2.1,7.4-8.5,10.8-8.5,10.8c3.1-0.1,8.9-1.9,11.4-3.1C146.4,78.2,141.6,81.4,140.9,81.7z"/>
<g>
</g>
<g>
</g>
<g>
</g>
<g>
</g>
<g>
</g>
<g>
</g>
<g>
</g>
<g>
</g>
<g>
</g>
<g>
</g>
<g>
</g>
<g>
</g>
<g>
</g>
<g>
</g>
<g>
</g>
</svg>
